<svg width="24" height="24" viewBox="-2 -2 24 24" fill="none" xmlns="http://www.w3.org/2000/svg">
<g id="arrow" clip-path="url(#clip0_26_176)">
<path id="Vector" d="M9.71222 1.41754C9.97387 1.15018 10.3285 1 10.6983 1C11.0681 1 11.4228 1.15018 11.6844 1.41754L19.5919 9.50792C19.8532 9.77561 20 10.1385 20 10.5168C20 10.8952 19.8532 11.2581 19.5919 11.5257L11.6844 19.6161C11.42 19.8686 11.07 20.0062 10.7083 19.9998C10.3466 19.9934 10.0015 19.8436 9.74571 19.5819C9.48993 19.3202 9.34348 18.967 9.33723 18.597C9.33099 18.2269 9.46543 17.8689 9.71222 17.5983L15.2381 11.9445L1.39543 11.9445C1.02534 11.9445 0.670408 11.7941 0.408714 11.5264C0.14702 11.2586 -7.95942e-07 10.8955 -8.29045e-07 10.5168C-8.62148e-07 10.1382 0.147019 9.77504 0.408713 9.50729C0.670407 9.23954 1.02534 9.08912 1.39543 9.08912L15.2381 9.08912L9.71222 3.43537C9.4509 3.16768 9.30412 2.8048 9.30412 2.42646C9.30412 2.04811 9.4509 1.68524 9.71222 1.41754Z" fill="#4FB337"/>
</g>
<defs>
<clipPath id="clip0_26_176">
<rect width="20" height="20" fill="white" transform="translate(20 20) rotate(180)"/>
</clipPath>
</defs>
</svg>
