<svg width="40" height="40" viewBox="0 0 40 40" fill="none" xmlns="http://www.w3.org/2000/svg">
<g id="ph:chat-dots-bold">
<path id="Vector" d="M26.25 20C26.25 20.4945 26.1033 20.9778 25.8286 21.3889C25.5539 21.8 25.1635 22.1205 24.7067 22.3097C24.2499 22.4989 23.7472 22.5484 23.2622 22.452C22.7773 22.3555 22.3318 22.1174 21.9822 21.7678C21.6326 21.4181 21.3945 20.9727 21.298 20.4877C21.2015 20.0028 21.2511 19.5001 21.4403 19.0433C21.6295 18.5865 21.9499 18.196 22.361 17.9213C22.7722 17.6466 23.2555 17.5 23.75 17.5C24.413 17.5 25.0489 17.7634 25.5177 18.2322C25.9866 18.7011 26.25 19.337 26.25 20ZM16.25 17.5C15.7555 17.5 15.2722 17.6466 14.861 17.9213C14.4499 18.196 14.1295 18.5865 13.9403 19.0433C13.7511 19.5001 13.7015 20.0028 13.798 20.4877C13.8945 20.9727 14.1326 21.4181 14.4822 21.7678C14.8318 22.1174 15.2773 22.3555 15.7622 22.452C16.2472 22.5484 16.7499 22.4989 17.2067 22.3097C17.6635 22.1205 18.0539 21.8 18.3286 21.3889C18.6033 20.9778 18.75 20.4945 18.75 20C18.75 19.337 18.4866 18.7011 18.0177 18.2322C17.5489 17.7634 16.913 17.5 16.25 17.5ZM3.12497 30V10C3.12497 9.1712 3.45421 8.37634 4.04026 7.79029C4.62632 7.20424 5.42117 6.875 6.24997 6.875H26.8015L31.7187 2.62969L31.7375 2.6125C32.2976 2.13765 33.0078 1.87639 33.7422 1.875C34.2007 1.87593 34.6535 1.97726 35.0687 2.17188C35.6097 2.41989 36.0678 2.81853 36.3881 3.32009C36.7084 3.82165 36.8775 4.40488 36.875 5V30C36.875 30.8288 36.5457 31.6237 35.9597 32.2097C35.3736 32.7958 34.5788 33.125 33.75 33.125H6.24997C5.42117 33.125 4.62632 32.7958 4.04026 32.2097C3.45421 31.6237 3.12497 30.8288 3.12497 30ZM6.87497 29.375H33.125V6.37031L28.725 10.1703C28.3849 10.4647 27.9498 10.6262 27.5 10.625H6.87497V29.375Z" fill="white"/>
</g>
</svg>
