<svg width="20" height="20" viewBox="-4 -4 20 20" fill="none" xmlns="http://www.w3.org/2000/svg">
<g id="mail-outline">
<path id="Vector" d="M1.2 11C0.87 11 0.5876 10.8777 0.3528 10.6331C0.118 10.3885 0.0004 10.0942 0 9.75V2.25C0 1.90625 0.1176 1.61208 0.3528 1.3675C0.588 1.12292 0.8704 1.00042 1.2 1H10.8C11.13 1 11.4126 1.1225 11.6478 1.3675C11.883 1.6125 12.0004 1.90667 12 2.25V9.75C12 10.0937 11.8826 10.3881 11.6478 10.6331C11.413 10.8781 11.1304 11.0004 10.8 11H1.2ZM6 6.625L1.2 3.5V9.75H10.8V3.5L6 6.625ZM6 5.375L10.8 2.25H1.2L6 5.375ZM1.2 3.5V2.25V9.75V3.5Z" fill="#4FB337"/>
</g>
</svg>
