<svg width="40" height="40" viewBox="0 0 40 40" fill="none" xmlns="http://www.w3.org/2000/svg">
<path fill-rule="evenodd" clip-rule="evenodd" d="M3.19995 2.5835C3.19995 1.59853 4.01724 0.800049 5.02542 0.800049H34.9745C35.9827 0.800049 36.7999 1.59853 36.7999 2.5835V23.4834C36.7999 24.4683 35.9827 25.2668 34.9745 25.2668C33.9663 25.2668 33.149 24.4683 33.149 23.4834V4.36696H6.85088V35.6331H17.8607C18.8689 35.6331 19.6862 36.4316 19.6862 37.4166C19.6862 38.4016 18.8689 39.2001 17.8607 39.2001H5.02542C4.01724 39.2001 3.19995 38.4016 3.19995 37.4166V2.5835ZM11.7568 10.9434C11.7568 9.95847 12.5741 9.15999 13.5823 9.15999H26.4176C27.4258 9.15999 28.2431 9.95847 28.2431 10.9434C28.2431 11.9284 27.4258 12.7269 26.4176 12.7269H13.5823C12.5741 12.7269 11.7568 11.9284 11.7568 10.9434ZM11.7568 19.3034C11.7568 18.3184 12.5741 17.5199 13.5823 17.5199H26.4176C27.4258 17.5199 28.2431 18.3184 28.2431 19.3034C28.2431 20.2884 27.4258 21.0868 26.4176 21.0868H13.5823C12.5741 21.0868 11.7568 20.2884 11.7568 19.3034ZM11.7568 27.6633C11.7568 26.6784 12.5741 25.8799 13.5823 25.8799H17.8607C18.8689 25.8799 19.6862 26.6784 19.6862 27.6633C19.6862 28.6483 18.8689 29.4468 17.8607 29.4468H13.5823C12.5741 29.4468 11.7568 28.6483 11.7568 27.6633Z" fill="white"/>
<path d="M36.378 29.4337C37.0217 30.1808 36.9173 31.2911 36.1449 31.9136L30.3423 38.7919C29.619 39.3749 28.5554 39.3283 27.8896 38.6843L24.5332 35.4378C23.8223 34.7501 23.8223 33.6352 24.5332 32.9476C25.2441 32.2599 26.3968 32.2599 27.1077 32.9476L29.2886 35.0571L33.8141 29.2082C34.5865 28.5856 35.7344 28.6866 36.378 29.4337Z" fill="#4FB337"/>
</svg>
