<svg width="20" height="20" viewBox="-4 -4 20 20" fill="none" xmlns="http://www.w3.org/2000/svg">
<g id="online">
<path id="Vector" d="M9.64034 1.60124C9.49515 1.61254 9.3564 1.66588 9.24101 1.75472C9.12563 1.84357 9.03861 1.96409 8.99057 2.10156C8.94254 2.23904 8.93557 2.38753 8.97051 2.5289C9.00546 2.67027 9.08081 2.79841 9.18736 2.89768C9.60435 3.31381 9.93497 3.80826 10.1602 4.3526C10.3854 4.89694 10.5009 5.48044 10.4998 6.06954C10.5006 6.6586 10.385 7.24202 10.1598 7.78632C9.9346 8.33063 9.60413 8.82511 9.18736 9.2414C9.11494 9.31056 9.05707 9.3935 9.01716 9.48534C8.97725 9.57718 8.95609 9.67607 8.95494 9.77621C8.95379 9.87634 8.97266 9.97569 9.01045 10.0684C9.04824 10.1612 9.10418 10.2454 9.17499 10.3162C9.2458 10.387 9.33005 10.443 9.42278 10.4808C9.51552 10.5186 9.61487 10.5374 9.715 10.5363C9.81514 10.5351 9.91403 10.514 10.0059 10.4741C10.0977 10.4341 10.1807 10.3763 10.2498 10.3039C11.3706 9.17968 12 7.65698 12 6.06954C12 4.48209 11.3706 2.9594 10.2498 1.83523C10.1813 1.76276 10.099 1.7047 10.0077 1.66443C9.91644 1.62417 9.81807 1.60251 9.71834 1.60074C9.69235 1.59972 9.66633 1.59972 9.64034 1.60074V1.60124ZM2.18767 1.61624C2.02146 1.63828 1.86744 1.71538 1.75019 1.83523C0.62938 2.9594 0 4.48209 0 6.06954C0 7.65698 0.62938 9.17968 1.75019 10.3039C1.81935 10.3763 1.90229 10.4341 1.99413 10.4741C2.08597 10.514 2.18486 10.5351 2.28499 10.5363C2.38513 10.5374 2.48448 10.5186 2.57722 10.4808C2.66995 10.443 2.7542 10.387 2.82501 10.3162C2.89582 10.2454 2.95176 10.1612 2.98955 10.0684C3.02734 9.97569 3.04621 9.87634 3.04506 9.77621C3.04391 9.67607 3.02275 9.57718 2.98284 9.48534C2.94293 9.3935 2.88506 9.31056 2.81264 9.2414C2.39565 8.82527 2.06503 8.33082 1.8398 7.78648C1.61456 7.24214 1.49915 6.65864 1.5002 6.06954C1.49942 5.48048 1.61496 4.89706 1.84018 4.35276C2.0654 3.80845 2.39587 3.31397 2.81264 2.89768C2.92601 2.78758 3.0017 2.64448 3.02892 2.48881C3.05613 2.33313 3.03347 2.17284 2.96417 2.03081C2.89488 1.88878 2.78248 1.77227 2.64304 1.69791C2.50359 1.62355 2.34422 1.59464 2.18767 1.61624ZM4.09408 3.27266C3.92965 3.29035 3.77567 3.36189 3.6561 3.47615C3.29293 3.80368 3.00242 4.20367 2.80332 4.65036C2.60422 5.09704 2.50095 5.58049 2.50015 6.06954C2.50015 7.09349 2.93513 8.02445 3.6406 8.66342C3.71348 8.7301 3.79878 8.78177 3.89163 8.81548C3.98448 8.84919 4.08306 8.86428 4.18174 8.85989C4.28042 8.85551 4.37727 8.83173 4.46676 8.78991C4.55625 8.74809 4.63663 8.68906 4.70331 8.61618C4.76998 8.5433 4.82165 8.458 4.85536 8.36515C4.88907 8.2723 4.90416 8.17372 4.89978 8.07504C4.89539 7.97636 4.87161 7.87951 4.82979 7.79002C4.78797 7.70053 4.72894 7.62015 4.65606 7.55347C4.44862 7.36608 4.28299 7.13708 4.16997 6.8814C4.05694 6.62572 3.99906 6.34909 4.00009 6.06954C3.99905 5.78987 4.05698 5.51312 4.17009 5.25735C4.28321 5.00157 4.44897 4.77251 4.65656 4.5851C4.77638 4.48087 4.86001 4.34129 4.89541 4.18647C4.93082 4.03165 4.91616 3.86959 4.85355 3.72364C4.79095 3.57769 4.68362 3.45537 4.54705 3.37433C4.41047 3.29328 4.25219 3.25768 4.09408 3.27266ZM7.79692 3.27266C7.64819 3.28086 7.50526 3.33317 7.38637 3.42291C7.26748 3.51266 7.17801 3.63578 7.12936 3.77657C7.08071 3.91736 7.07509 4.06945 7.11322 4.21345C7.15135 4.35745 7.23149 4.48683 7.34344 4.5851C7.55103 4.77251 7.71679 5.00157 7.82991 5.25735C7.94302 5.51312 8.00095 5.78987 7.99991 6.06954C8.00095 6.34921 7.94302 6.62596 7.82991 6.88173C7.71679 7.13751 7.55103 7.36657 7.34344 7.55397C7.25988 7.61639 7.19025 7.69554 7.139 7.78638C7.08776 7.87723 7.05603 7.97776 7.04584 8.08156C7.03564 8.18536 7.04721 8.29014 7.07981 8.38922C7.1124 8.48829 7.1653 8.57948 7.23513 8.65696C7.30496 8.73443 7.39018 8.79649 7.48535 8.83916C7.58051 8.88184 7.68354 8.9042 7.78783 8.90481C7.89213 8.90541 7.99541 8.88426 8.09107 8.8427C8.18673 8.80114 8.27267 8.74008 8.3434 8.66342C8.70673 8.33589 8.99736 7.93583 9.19655 7.48906C9.39574 7.04228 9.49906 6.55871 9.49985 6.06954C9.5017 5.58147 9.40117 5.09844 9.20472 4.65164C9.00828 4.20485 8.72031 3.80423 8.3594 3.47565C8.28458 3.40505 8.19603 3.35059 8.09927 3.31567C8.0025 3.28075 7.89958 3.26611 7.79692 3.27266ZM6 5.16358C5.82084 5.16368 5.64573 5.2169 5.49681 5.3165C5.34789 5.41611 5.23185 5.55764 5.16336 5.72319C5.09486 5.88874 5.07699 6.07088 5.11201 6.24659C5.14702 6.4223 5.23334 6.58368 5.36007 6.71033C5.48679 6.83698 5.64821 6.92321 5.82394 6.95813C5.99966 6.99304 6.1818 6.97507 6.34731 6.90649C6.51282 6.8379 6.65429 6.72179 6.75381 6.57281C6.85334 6.42384 6.90646 6.2487 6.90646 6.06954C6.90666 5.95045 6.88335 5.83248 6.83786 5.72242C6.79238 5.61235 6.72562 5.51235 6.6414 5.42814C6.55719 5.34392 6.45719 5.27716 6.34712 5.23168C6.23705 5.18619 6.11909 5.16338 6 5.16358Z" fill="#4FB337"/>
</g>
</svg>
