<svg width="24" height="24" viewBox="-2 -2 24 24" fill="none" xmlns="http://www.w3.org/2000/svg">
<g id="search" clip-path="url(#clip0_52_1026)">
<path id="Vector" d="M8.19657 16.3923C10.0152 16.3921 11.7814 15.7833 13.2139 14.6629L17.7179 19.1667L19.1667 17.718L14.6626 13.2142C15.7837 11.7817 16.3929 10.0151 16.3931 8.19614C16.3931 3.67699 12.716 0 8.19657 0C3.67719 0 0 3.67699 0 8.19614C0 12.7153 3.67719 16.3923 8.19657 16.3923ZM8.19657 2.04903C11.5869 2.04903 14.344 4.80601 14.344 8.19614C14.344 11.5863 11.5869 14.3432 8.19657 14.3432C4.80627 14.3432 2.04914 11.5863 2.04914 8.19614C2.04914 4.80601 4.80627 2.04903 8.19657 2.04903Z" fill="#fff"/>
</g>
<defs>
<clipPath id="clip0_52_1026">
<rect width="20" height="20" fill="#fff"/>
</clipPath>
</defs>
</svg>
