<svg width="20" height="20" viewBox="-4 -4 20 20" fill="none" xmlns="http://www.w3.org/2000/svg">
<g id="time" clip-path="url(#clip0_52_1401)">
<path id="Vector" d="M6 0C2.6916 0 0 2.6916 0 6C0 9.3084 2.6916 12 6 12C9.3084 12 12 9.3084 12 6C12 2.6916 9.3084 0 6 0ZM6 10.8C3.3534 10.8 1.2 8.6466 1.2 6C1.2 3.3534 3.3534 1.2 6 1.2C8.6466 1.2 10.8 3.3534 10.8 6C10.8 8.6466 8.6466 10.8 6 10.8Z" fill="#4FB337"/>
<path id="Vector_2" d="M6.5 3.5H5.5V6.5H8.5V5.5H6.5V3.5Z" fill="#4FB337"/>
</g>
<defs>
<clipPath id="clip0_52_1401">
<rect width="12" height="12" fill="white"/>
</clipPath>
</defs>
</svg>
