<svg width="24" height="24" viewBox="-4 -4 24 24" fill="none" xmlns="http://www.w3.org/2000/svg">
<g id="av-timer" opacity="0.3" clip-path="url(#clip0_39_1315)">
<path id="Vector" d="M8 16C6.9037 16 5.87022 15.789 4.89955 15.3671C3.92889 14.9452 3.08089 14.3709 2.35556 13.6444C1.63022 12.9179 1.0563 12.0696 0.633778 11.0995C0.211259 10.1295 0 9.09628 0 7.99999C0 7.34814 0.0740741 6.71495 0.222222 6.10044C0.37037 5.48592 0.585185 4.90814 0.866666 4.36711C1.14815 3.82607 1.48533 3.32237 1.87822 2.856C2.27111 2.38963 2.7117 1.97096 3.2 1.6L9.24444 7.64444L8 8.88888L3.2 4.08888C2.75555 4.62222 2.40741 5.21866 2.15556 5.87822C1.9037 6.53777 1.77778 7.24503 1.77778 7.99999C1.77778 9.71851 2.38518 11.1852 3.6 12.4C4.81481 13.6148 6.28148 14.2222 8 14.2222C9.71852 14.2222 11.1852 13.6148 12.4 12.4C13.6148 11.1852 14.2222 9.71851 14.2222 7.99999C14.2222 6.41481 13.7147 5.04829 12.6996 3.90044C11.6844 2.75259 10.4142 2.07466 8.88889 1.86666V3.55555H7.11111V0H8C9.09629 0 10.1298 0.211259 11.1004 0.633777C12.0711 1.0563 12.9191 1.63022 13.6444 2.35555C14.3698 3.08089 14.944 3.92918 15.3671 4.90044C15.7902 5.8717 16.0012 6.90488 16 7.99999C15.9988 9.0951 15.7878 10.1286 15.3671 11.1004C14.9464 12.0723 14.3721 12.9203 13.6444 13.6444C12.9167 14.3686 12.0684 14.9428 11.0996 15.3671C10.1307 15.7914 9.09748 16.0023 8 16Z" fill="white"/>
</g>
<defs>
<clipPath id="clip0_39_1315">
<rect width="16" height="16" fill="white"/>
</clipPath>
</defs>
</svg>
