<svg width="155" height="64" viewBox="0 0 155 64" fill="none" xmlns="http://www.w3.org/2000/svg">
<rect x="36" y="18" width="23" height="5" fill="#4FB337"/>
<path d="M30 18V46H24.52V27.84L16.64 40.84H16L8.12 27.88V46H2.6V18H8.28L16.32 31.24L24.32 18H30ZM53.3772 26H58.5372V46H53.3772V43.64C51.8305 45.5867 49.6572 46.56 46.8572 46.56C44.1905 46.56 41.8972 45.5467 39.9772 43.52C38.0839 41.4667 37.1372 38.96 37.1372 36C37.1372 33.04 38.0839 30.5467 39.9772 28.52C41.8972 26.4667 44.1905 25.44 46.8572 25.44C49.6572 25.44 51.8305 26.4133 53.3772 28.36V26ZM43.8572 40.08C44.8972 41.12 46.2172 41.64 47.8172 41.64C49.4172 41.64 50.7372 41.12 51.7772 40.08C52.8439 39.0133 53.3772 37.6533 53.3772 36C53.3772 34.3467 52.8439 33 51.7772 31.96C50.7372 30.8933 49.4172 30.36 47.8172 30.36C46.2172 30.36 44.8972 30.8933 43.8572 31.96C42.8172 33 42.2972 34.3467 42.2972 36C42.2972 37.6533 42.8172 39.0133 43.8572 40.08ZM85.1763 18V23.28H77.6163V46H72.0963V23.28H64.5763V18H85.1763ZM106.818 46L101.178 36.28H96.9778V46H91.4578V18H102.658C105.244 18 107.444 18.9067 109.258 20.72C111.071 22.5333 111.978 24.72 111.978 27.28C111.978 29.0133 111.484 30.6267 110.498 32.12C109.511 33.5867 108.204 34.6933 106.578 35.44L112.778 46H106.818ZM96.9778 23.16V31.44H102.658C103.698 31.44 104.591 31.04 105.338 30.24C106.084 29.4133 106.458 28.4267 106.458 27.28C106.458 26.1333 106.084 25.16 105.338 24.36C104.591 23.56 103.698 23.16 102.658 23.16H96.9778ZM119.228 18H124.748V46H119.228V18ZM154.451 46H148.171L142.731 36.88L137.291 46H131.051L139.611 31.64L131.491 18H137.731L142.731 26.4L147.731 18H153.971L145.851 31.6L154.451 46Z" fill="white"/>
</svg>
